<svg width="1512" height="1263" viewBox="0 0 1512 1263" fill="none" xmlns="http://www.w3.org/2000/svg">
<path d="M125.687 740.186C109.687 740.186 94.7871 737.586 80.9871 732.386C67.3871 726.986 55.4871 719.486 45.2871 709.886C35.2871 700.086 27.4871 688.586 21.8871 675.386C16.2871 662.186 13.4871 647.786 13.4871 632.186C13.4871 616.586 16.2871 602.186 21.8871 588.986C27.4871 575.786 35.3871 564.386 45.5871 554.786C55.7871 544.986 67.6871 537.486 81.2871 532.286C94.8871 526.886 109.787 524.186 125.987 524.186C143.187 524.186 158.887 527.186 173.087 533.186C187.287 538.986 199.287 547.686 209.087 559.286L183.887 582.986C176.287 574.786 167.787 568.686 158.387 564.686C148.987 560.486 138.787 558.386 127.787 558.386C116.787 558.386 106.687 560.186 97.4871 563.786C88.4871 567.386 80.5871 572.486 73.7871 579.086C67.1871 585.686 61.9871 593.486 58.1871 602.486C54.5871 611.486 52.7871 621.386 52.7871 632.186C52.7871 642.986 54.5871 652.886 58.1871 661.886C61.9871 670.886 67.1871 678.686 73.7871 685.286C80.5871 691.886 88.4871 696.986 97.4871 700.586C106.687 704.186 116.787 705.986 127.787 705.986C138.787 705.986 148.987 703.986 158.387 699.986C167.787 695.786 176.287 689.486 183.887 681.086L209.087 705.086C199.287 716.486 187.287 725.186 173.087 731.186C158.887 737.186 143.087 740.186 125.687 740.186ZM246.456 737.186V527.186H285.456V704.186H395.256V737.186H246.456ZM426.046 737.186V527.186H465.046V737.186H426.046ZM557.846 614.486H662.246V646.586H557.846V614.486ZM560.846 704.486H679.346V737.186H521.846V527.186H675.146V559.886H560.846V704.486ZM722.823 737.186V527.186H754.923L886.623 688.886H870.723V527.186H909.423V737.186H877.323L745.623 575.486H761.523V737.186H722.823ZM1008.29 737.186V560.186H938.694V527.186H1116.89V560.186H1047.29V737.186H1008.29ZM1105.92 737.186L1200.42 527.186H1238.82L1333.62 737.186H1292.82L1211.52 547.886H1227.12L1146.12 737.186H1105.92ZM1149.42 688.586L1159.92 657.986H1273.32L1283.82 688.586H1149.42ZM1360.32 737.186V527.186H1399.32V704.186H1509.12V737.186H1360.32Z" fill="#292929"/>
<path fill-rule="evenodd" clip-rule="evenodd" d="M1372 479.939C1292.94 202.483 1047.15 0.185547 756.177 0.185547C464.773 0.185547 218.68 203.089 140 481.186H244.637C319.941 256.835 522.64 100.186 756.177 100.186C989.714 100.186 1192.41 256.835 1267.72 481.186H1372V479.939Z" fill="#316B9D"/>
<path fill-rule="evenodd" clip-rule="evenodd" d="M1372 782.432C1292.94 1059.89 1047.15 1262.19 756.177 1262.19C464.773 1262.19 218.68 1059.28 140 781.186H244.637C319.941 1005.54 522.64 1162.19 756.177 1162.19C989.714 1162.19 1192.41 1005.54 1267.72 781.186H1372V782.432Z" fill="#316B9D"/>
<path fill-rule="evenodd" clip-rule="evenodd" d="M765.663 1071.19C701.663 1071.19 642.063 1060.79 586.863 1039.99C532.463 1018.39 484.863 988.385 444.063 949.985C404.063 910.785 372.863 864.785 350.463 811.985C345.909 801.251 341.818 790.317 338.189 779.186H505.545C519.483 806.378 536.989 830.511 558.063 851.585C585.263 877.985 616.863 898.385 652.863 912.785C689.663 927.185 730.063 934.385 774.063 934.385C818.063 934.385 858.863 926.385 896.463 910.385C934.063 893.585 968.063 868.385 998.463 834.785L1099.26 930.785C1060.06 976.385 1012.06 1011.19 955.263 1035.19C898.463 1059.19 835.263 1071.19 765.663 1071.19Z" fill="#292929"/>
<path fill-rule="evenodd" clip-rule="evenodd" d="M765.663 187.186C701.663 187.186 642.063 197.586 586.863 218.386C532.463 239.986 484.863 269.986 444.063 308.386C404.063 347.586 372.863 393.586 350.463 446.386C345.636 457.763 341.33 469.363 337.543 481.186H504.529C518.629 453.175 536.473 428.375 558.063 406.786C585.263 380.386 616.863 359.986 652.863 345.586C689.663 331.186 730.063 323.986 774.063 323.986C818.063 323.986 858.863 331.986 896.463 347.986C934.063 364.786 968.063 389.986 998.463 423.586L1099.26 327.586C1060.06 281.986 1012.06 247.186 955.263 223.186C898.463 199.186 835.263 187.186 765.663 187.186Z" fill="#292929"/>
</svg>
